{
  "asset": {
    "generator": "Khronos glTF Blender I/O v4.3.47",
    "version": "2.0"
  },
  "extensionsUsed": [
    "KHR_materials_specular"
  ],
  "scene": 0,
  "scenes": [
    {
      "name": "Scene",
      "nodes": [
        0,
        1,
        2,
        3,
        4,
        5,
        6,
        7,
        8,
        9,
        10,
        11,
        12,
        13,
        14,
        15,
        16,
        17,
        18,
        19,
        20,
        21,
        22,
        23,
        24,
        25,
        26,
        27,
        28,
        29,
        30
      ]
    }
  ],
  "nodes": [
    {
      "mesh": 0,
      "name": "island gates.002",
      "rotation": [
        0,
        -0.30831456184387207,
        0,
        0.9512844681739807
      ],
      "translation": [
        -1645.6578369140625,
        1.2874648571014404,
        1347.1234130859375
      ],
      "scale": [
        1,
        1,
        1
      ]
    },
    {
      "mesh": 1,
      "name": "Cube.031",
      "rotation": [
        0,
        -0.5775553584098816,
        0,
        0.816351592540741
      ],
      "translation": [
        -1558.278564453125,
        1.4021406173706055,
        1371.5865478515625
      ],
      "scale": [
        1,
        1,
        1
      ]
    },
    {
      "mesh": 2,
      "name": "Cube.032",
      "translation": [
        -1718.7137451171875,
        1.3654632568359375,
        1312.643310546875
      ],
      "rotation": [
        0,
        0,
        0,
        1
      ],
      "scale": [
        1,
        1,
        1
      ]
    },
    {
      "mesh": 3,
      "name": "Cube.033",
      "rotation": [
        0,
        -0.5775553584098816,
        0,
        0.816351592540741
      ],
      "translation": [
        -1617.2955322265625,
        1.5137834548950195,
        1391.460693359375
      ],
      "scale": [
        1,
        1,
        1
      ]
    },
    {
      "mesh": 4,
      "name": "Cube.034",
      "rotation": [
        0,
        0.16289415955543518,
        0,
        0.9866435527801514
      ],
      "translation": [
        -1780.823974609375,
        -0.11315552890300751,
        1338.7103271484375
      ],
      "scale": [
        1,
        1,
        1
      ]
    },
    {
      "mesh": 5,
      "name": "Mball.022",
      "rotation": [
        0,
        -0.6974138021469116,
        0,
        0.7166686654090881
      ],
      "translation": [
        -1828.512451171875,
        0.715463399887085,
        1412.131103515625
      ],
      "scale": [
        1,
        1,
        1
      ]
    },
    {
      "mesh": 6,
      "name": "Cube.035",
      "rotation": [
        0,
        0.16289415955543518,
        0,
        0.9866435527801514
      ],
      "translation": [
        -1804.533203125,
        0.06220608949661255,
        1293.85107421875
      ],
      "scale": [
        1,
        1,
        1
      ]
    },
    {
      "mesh": 7,
      "name": "Cube.036",
      "rotation": [
        0,
        -0.7071068286895752,
        0,
        0.7071068286895752
      ],
      "translation": [
        -1811.2471923828125,
        1.2186169624328613,
        1378.8861083984375
      ],
      "scale": [
        1,
        1,
        1
      ]
    },
    {
      "mesh": 8,
      "name": "Mball.023",
      "rotation": [
        0,
        -0.30831456184387207,
        0,
        0.9512844681739807
      ],
      "translation": [
        -1613.0709228515625,
        1.3222062587738037,
        1304.069580078125
      ],
      "scale": [
        1,
        1,
        1
      ]
    },
    {
      "mesh": 9,
      "name": "Mball.024",
      "translation": [
        -1717.175537109375,
        0.9365272521972656,
        1441.0574951171875
      ],
      "rotation": [
        0,
        0,
        0,
        1
      ],
      "scale": [
        1,
        1,
        1
      ]
    },
    {
      "mesh": 10,
      "name": "Mball.025",
      "rotation": [
        0,
        0.7071068286895752,
        0,
        0.7071068286895752
      ],
      "translation": [
        -1684.558349609375,
        1.662463903427124,
        1263.4161376953125
      ],
      "scale": [
        1,
        1,
        1
      ]
    },
    {
      "mesh": 11,
      "name": "island gates.003",
      "rotation": [
        0,
        0.6291938424110413,
        0,
        0.7772485017776489
      ],
      "translation": [
        -1731.7628173828125,
        -0.5711157321929932,
        1411.7862548828125
      ],
      "scale": [
        1,
        1,
        1
      ]
    },
    {
      "mesh": 12,
      "name": "Cube.037",
      "rotation": [
        0,
        -0.6379608511924744,
        0,
        0.7700688242912292
      ],
      "translation": [
        -1707.4595947265625,
        -0.6067020893096924,
        1404.73876953125
      ],
      "scale": [
        1,
        1,
        1
      ]
    },
    {
      "mesh": 13,
      "name": "Cube.038",
      "rotation": [
        0,
        -0.8534095883369446,
        0,
        0.5212409496307373
      ],
      "translation": [
        -1709.7303466796875,
        -0.4829403758049011,
        1414.3172607421875
      ],
      "scale": [
        1,
        1,
        1
      ]
    },
    {
      "mesh": 14,
      "name": "Cube.039",
      "translation": [
        -1717.5621337890625,
        -0.5149292349815369,
        1394.7440185546875
      ],
      "rotation": [
        0,
        0,
        0,
        1
      ],
      "scale": [
        1,
        1,
        1
      ]
    },
    {
      "mesh": 15,
      "name": "Mball.026",
      "rotation": [
        0,
        0.3359176814556122,
        0,
        0.9418913722038269
      ],
      "translation": [
        -1727.7728271484375,
        -0.6313494443893433,
        1402.4814453125
      ],
      "scale": [
        1,
        1,
        1
      ]
    },
    {
      "mesh": 16,
      "name": "Mball.041",
      "rotation": [
        0,
        -1,
        0,
        4.371138828673793e-8
      ],
      "translation": [
        -1717.175537109375,
        0.9365272521972656,
        1450.074951171875
      ],
      "scale": [
        1,
        1,
        1
      ]
    },
    {
      "mesh": 17,
      "name": "Mball.027",
      "rotation": [
        0,
        0.16289415955543518,
        0,
        0.9866435527801514
      ],
      "translation": [
        -1793.9058837890625,
        -9.325966835021973,
        1317.186767578125
      ],
      "scale": [
        1,
        1,
        1
      ]
    },
    {
      "mesh": 18,
      "name": "Mball.028",
      "rotation": [
        0,
        0.16289415955543518,
        0,
        0.9866435527801514
      ],
      "translation": [
        -1791.8853759765625,
        -1.6866238117218018,
        1320.56298828125
      ],
      "scale": [
        1,
        1,
        1
      ]
    },
    {
      "mesh": 19,
      "name": "Mball.029",
      "translation": [
        -1713.879150390625,
        0.22819918394088745,
        1281.7811279296875
      ],
      "rotation": [
        0,
        0,
        0,
        1
      ],
      "scale": [
        1,
        1,
        1
      ]
    },
    {
      "mesh": 20,
      "name": "Mball.030",
      "translation": [
        -1725.454345703125,
        -0.01772463321685791,
        1287.7357177734375
      ],
      "rotation": [
        0,
        0,
        0,
        1
      ],
      "scale": [
        1,
        1,
        1
      ]
    },
    {
      "mesh": 21,
      "name": "Mball.031",
      "rotation": [
        0,
        -0.30831456184387207,
        0,
        0.9512844681739807
      ],
      "translation": [
        -1627.7177734375,
        0.17133304476737976,
        1323.5802001953125
      ],
      "scale": [
        1,
        1,
        1
      ]
    },
    {
      "mesh": 22,
      "name": "Mball.032",
      "rotation": [
        0,
        -0.30831456184387207,
        0,
        0.9512844681739807
      ],
      "translation": [
        -1635.1531982421875,
        -0.3346080780029297,
        1322.6661376953125
      ],
      "scale": [
        1,
        1,
        1
      ]
    },
    {
      "mesh": 23,
      "name": "Mball.033",
      "rotation": [
        0,
        -1,
        0,
        4.371138828673793e-8
      ],
      "translation": [
        -1836.9073486328125,
        -0.37209707498550415,
        1389.04248046875
      ],
      "scale": [
        1,
        1,
        1
      ]
    },
    {
      "mesh": 24,
      "name": "Mball.034",
      "translation": [
        -1847.466796875,
        -0.7049448490142822,
        1387.168701171875
      ],
      "rotation": [
        0,
        0,
        0,
        1
      ],
      "scale": [
        1,
        1,
        1
      ]
    },
    {
      "mesh": 25,
      "name": "Mball.035",
      "translation": [
        -1716.1304931640625,
        -0.5171095728874207,
        1445.339111328125
      ],
      "rotation": [
        0,
        0,
        0,
        1
      ],
      "scale": [
        1,
        1,
        1
      ]
    },
    {
      "mesh": 26,
      "name": "Mball.036",
      "translation": [
        -1716.7216796875,
        -0.17402660846710205,
        1445.19775390625
      ],
      "rotation": [
        0,
        0,
        0,
        1
      ],
      "scale": [
        1,
        1,
        1
      ]
    },
    {
      "mesh": 27,
      "name": "Mball.037",
      "rotation": [
        0,
        -0.5775553584098816,
        0,
        0.816351592540741
      ],
      "translation": [
        -1584.9935302734375,
        0.31765812635421753,
        1381.449951171875
      ],
      "scale": [
        1,
        1,
        1
      ]
    },
    {
      "mesh": 28,
      "name": "Mball.038",
      "rotation": [
        0,
        -0.5775553584098816,
        0,
        0.816351592540741
      ],
      "translation": [
        -1596.382568359375,
        -1.1291637420654297,
        1378.6571044921875
      ],
      "scale": [
        1,
        1,
        1
      ]
    },
    {
      "mesh": 29,
      "name": "Mball.039",
      "translation": [
        -1719.6217041015625,
        -1.7174872159957886,
        1406.1741943359375
      ],
      "rotation": [
        0,
        0,
        0,
        1
      ],
      "scale": [
        1,
        1,
        1
      ]
    },
    {
      "mesh": 30,
      "name": "Mball.040",
      "translation": [
        -1719.8612060546875,
        -3.0174503326416016,
        1416.994384765625
      ],
      "rotation": [
        0,
        0,
        0,
        1
      ],
      "scale": [
        1,
        1,
        1
      ]
    }
  ],
  "materials": [
    {
      "doubleSided": true,
      "extensions": {
        "KHR_materials_specular": {
          "specularTexture": {
            "index": 0
          }
        }
      },
      "name": "Lightly soiled pink metal",
      "normalTexture": {
        "index": 0,
        "texCoord": 0
      },
      "pbrMetallicRoughness": {
        "baseColorTexture": {
          "index": 1,
          "texCoord": 0
        },
        "metallicRoughnessTexture": {
          "index": 2,
          "texCoord": 0
        },
        "baseColorFactor": [
          1,
          1,
          1,
          1
        ],
        "metallicFactor": 1,
        "roughnessFactor": 1
      },
      "emissiveFactor": [
        0,
        0,
        0
      ],
      "alphaMode": "OPAQUE"
    }
  ],
  "meshes": [
    {
      "name": "Mesh.023",
      "primitives": [
        {
          "attributes": {
            "POSITION": 0,
            "NORMAL": 1,
            "TEXCOORD_0": 2
          },
          "indices": 3,
          "material": 0,
          "mode": 4
        }
      ]
    },
    {
      "name": "Cube.031",
      "primitives": [
        {
          "attributes": {
            "POSITION": 4,
            "NORMAL": 5,
            "TEXCOORD_0": 6
          },
          "indices": 7,
          "material": 0,
          "mode": 4
        }
      ]
    },
    {
      "name": "Cube.033",
      "primitives": [
        {
          "attributes": {
            "POSITION": 8,
            "NORMAL": 9,
            "TEXCOORD_0": 10
          },
          "indices": 11,
          "material": 0,
          "mode": 4
        }
      ]
    },
    {
      "name": "Cube.034",
      "primitives": [
        {
          "attributes": {
            "POSITION": 12,
            "NORMAL": 13,
            "TEXCOORD_0": 14
          },
          "indices": 15,
          "material": 0,
          "mode": 4
        }
      ]
    },
    {
      "name": "Cube.035",
      "primitives": [
        {
          "attributes": {
            "POSITION": 16,
            "NORMAL": 17,
            "TEXCOORD_0": 18
          },
          "indices": 19,
          "material": 0,
          "mode": 4
        }
      ]
    },
    {
      "name": "Mball.006",
      "primitives": [
        {
          "attributes": {
            "POSITION": 20,
            "NORMAL": 21,
            "TEXCOORD_0": 22
          },
          "indices": 23,
          "material": 0,
          "mode": 4
        }
      ]
    },
    {
      "name": "Cube.036",
      "primitives": [
        {
          "attributes": {
            "POSITION": 24,
            "NORMAL": 25,
            "TEXCOORD_0": 26
          },
          "indices": 27,
          "material": 0,
          "mode": 4
        }
      ]
    },
    {
      "name": "Cube.037",
      "primitives": [
        {
          "attributes": {
            "POSITION": 28,
            "NORMAL": 29,
            "TEXCOORD_0": 30
          },
          "indices": 31,
          "material": 0,
          "mode": 4
        }
      ]
    },
    {
      "name": "Mesh.024",
      "primitives": [
        {
          "attributes": {
            "POSITION": 32,
            "NORMAL": 33,
            "TEXCOORD_0": 34
          },
          "indices": 35,
          "material": 0,
          "mode": 4
        }
      ]
    },
    {
      "name": "Mesh.025",
      "primitives": [
        {
          "attributes": {
            "POSITION": 36,
            "NORMAL": 37,
            "TEXCOORD_0": 38
          },
          "indices": 39,
          "material": 0,
          "mode": 4
        }
      ]
    },
    {
      "name": "Mesh.026",
      "primitives": [
        {
          "attributes": {
            "POSITION": 40,
            "NORMAL": 41,
            "TEXCOORD_0": 42
          },
          "indices": 43,
          "material": 0,
          "mode": 4
        }
      ]
    },
    {
      "name": "Mesh.027",
      "primitives": [
        {
          "attributes": {
            "POSITION": 44,
            "NORMAL": 45,
            "TEXCOORD_0": 46
          },
          "indices": 47,
          "material": 0,
          "mode": 4
        }
      ]
    },
    {
      "name": "Cube.038",
      "primitives": [
        {
          "attributes": {
            "POSITION": 48,
            "NORMAL": 49,
            "TEXCOORD_0": 50
          },
          "indices": 51,
          "material": 0,
          "mode": 4
        }
      ]
    },
    {
      "name": "Cube.039",
      "primitives": [
        {
          "attributes": {
            "POSITION": 52,
            "NORMAL": 53,
            "TEXCOORD_0": 54
          },
          "indices": 55,
          "material": 0,
          "mode": 4
        }
      ]
    },
    {
      "name": "Cube.040",
      "primitives": [
        {
          "attributes": {
            "POSITION": 56,
            "NORMAL": 57,
            "TEXCOORD_0": 58
          },
          "indices": 59,
          "material": 0,
          "mode": 4
        }
      ]
    },
    {
      "name": "Mball.007",
      "primitives": [
        {
          "attributes": {
            "POSITION": 60,
            "NORMAL": 61,
            "TEXCOORD_0": 62
          },
          "indices": 63,
          "material": 0,
          "mode": 4
        }
      ]
    },
    {
      "name": "Mesh.005",
      "primitives": [
        {
          "attributes": {
            "POSITION": 64,
            "NORMAL": 65,
            "TEXCOORD_0": 66
          },
          "indices": 39,
          "material": 0,
          "mode": 4
        }
      ]
    },
    {
      "name": "Mesh.028",
      "primitives": [
        {
          "attributes": {
            "POSITION": 67,
            "NORMAL": 68,
            "TEXCOORD_0": 69
          },
          "indices": 70,
          "material": 0,
          "mode": 4
        }
      ]
    },
    {
      "name": "Mesh.029",
      "primitives": [
        {
          "attributes": {
            "POSITION": 71,
            "NORMAL": 72,
            "TEXCOORD_0": 73
          },
          "indices": 74,
          "material": 0,
          "mode": 4
        }
      ]
    },
    {
      "name": "Mesh.030",
      "primitives": [
        {
          "attributes": {
            "POSITION": 75,
            "NORMAL": 76,
            "TEXCOORD_0": 77
          },
          "indices": 78,
          "material": 0,
          "mode": 4
        }
      ]
    },
    {
      "name": "Mesh.031",
      "primitives": [
        {
          "attributes": {
            "POSITION": 79,
            "NORMAL": 80,
            "TEXCOORD_0": 81
          },
          "indices": 82,
          "material": 0,
          "mode": 4
        }
      ]
    },
    {
      "name": "Mesh.032",
      "primitives": [
        {
          "attributes": {
            "POSITION": 83,
            "NORMAL": 84,
            "TEXCOORD_0": 85
          },
          "indices": 86,
          "material": 0,
          "mode": 4
        }
      ]
    },
    {
      "name": "Mesh.033",
      "primitives": [
        {
          "attributes": {
            "POSITION": 87,
            "NORMAL": 88,
            "TEXCOORD_0": 89
          },
          "indices": 90,
          "material": 0,
          "mode": 4
        }
      ]
    },
    {
      "name": "Mesh.040",
      "primitives": [
        {
          "attributes": {
            "POSITION": 91,
            "NORMAL": 92,
            "TEXCOORD_0": 93
          },
          "indices": 94,
          "material": 0,
          "mode": 4
        }
      ]
    },
    {
      "name": "Mesh.043",
      "primitives": [
        {
          "attributes": {
            "POSITION": 95,
            "NORMAL": 96,
            "TEXCOORD_0": 97
          },
          "indices": 98,
          "material": 0,
          "mode": 4
        }
      ]
    },
    {
      "name": "Mesh.044",
      "primitives": [
        {
          "attributes": {
            "POSITION": 99,
            "NORMAL": 100,
            "TEXCOORD_0": 101
          },
          "indices": 102,
          "material": 0,
          "mode": 4
        }
      ]
    },
    {
      "name": "Mesh.045",
      "primitives": [
        {
          "attributes": {
            "POSITION": 103,
            "NORMAL": 104,
            "TEXCOORD_0": 105
          },
          "indices": 106,
          "material": 0,
          "mode": 4
        }
      ]
    },
    {
      "name": "Mesh.046",
      "primitives": [
        {
          "attributes": {
            "POSITION": 107,
            "NORMAL": 108,
            "TEXCOORD_0": 109
          },
          "indices": 110,
          "material": 0,
          "mode": 4
        }
      ]
    },
    {
      "name": "Mesh.047",
      "primitives": [
        {
          "attributes": {
            "POSITION": 111,
            "NORMAL": 112,
            "TEXCOORD_0": 113
          },
          "indices": 114,
          "material": 0,
          "mode": 4
        }
      ]
    },
    {
      "name": "Mesh.048",
      "primitives": [
        {
          "attributes": {
            "POSITION": 115,
            "NORMAL": 116,
            "TEXCOORD_0": 117
          },
          "indices": 118,
          "material": 0,
          "mode": 4
        }
      ]
    },
    {
      "name": "Mesh.049",
      "primitives": [
        {
          "attributes": {
            "POSITION": 119,
            "NORMAL": 120,
            "TEXCOORD_0": 121
          },
          "indices": 122,
          "material": 0,
          "mode": 4
        }
      ]
    }
  ],
  "textures": [
    {
      "sampler": 0,
      "source": 0
    },
    {
      "sampler": 0,
      "source": 1
    },
    {
      "sampler": 0,
      "source": 2
    }
  ],
  "images": [
    {
      "mimeType": "image/jpeg",
      "name": "metal_normal_opengl",
      "uri": "metal_normal_opengl.jpg"
    },
    {
      "mimeType": "image/jpeg",
      "name": "metal07_diffuse",
      "uri": "metal07_diffuse.jpg"
    },
    {
      "mimeType": "image/png",
      "name": "metal_metallic-metal_glossiness",
      "uri": "metal_metallic-metal_glossiness.png"
    }
  ],
  "accessors": [
    {
      "bufferView": 0,
      "componentType": 5126,
      "count": 13657,
      "max": [
        0.9267892241477966,
        1.0592055320739746,
        0.35587894916534424
      ],
      "min": [
        -0.8382488489151001,
        -1.0754138231277466,
        -0.384511798620224
      ],
      "type": "VEC3",
      "byteOffset": 0
    },
    {
      "bufferView": 1,
      "componentType": 5126,
      "count": 13657,
      "type": "VEC3",
      "byteOffset": 0
    },
    {
      "bufferView": 2,
      "componentType": 5126,
      "count": 13657,
      "type": "VEC2",
      "byteOffset": 0
    },
    {
      "bufferView": 3,
      "componentType": 5123,
      "count": 64740,
      "type": "SCALAR",
      "byteOffset": 0
    },
    {
      "bufferView": 4,
      "componentType": 5126,
      "count": 7667,
      "max": [
        1.0914340019226074,
        1.3216201066970825,
        0.417717307806015
      ],
      "min": [
        -0.9380722045898438,
        -1.0394986867904663,
        -0.37929677963256836
      ],
      "type": "VEC3",
      "byteOffset": 0
    },
    {
      "bufferView": 5,
      "componentType": 5126,
      "count": 7667,
      "type": "VEC3",
      "byteOffset": 0
    },
    {
      "bufferView": 6,
      "componentType": 5126,
      "count": 7667,
      "type": "VEC2",
      "byteOffset": 0
    },
    {
      "bufferView": 7,
      "componentType": 5123,
      "count": 37944,
      "type": "SCALAR",
      "byteOffset": 0
    },
    {
      "bufferView": 8,
      "componentType": 5126,
      "count": 19331,
      "max": [
        0.7823651432991028,
        1.1247198581695557,
        0.2724955081939697
      ],
      "min": [
        -0.7006971836090088,
        -1.0398283004760742,
        -0.2665245532989502
      ],
      "type": "VEC3",
      "byteOffset": 0
    },
    {
      "bufferView": 9,
      "componentType": 5126,
      "count": 19331,
      "type": "VEC3",
      "byteOffset": 0
    },
    {
      "bufferView": 10,
      "componentType": 5126,
      "count": 19331,
      "type": "VEC2",
      "byteOffset": 0
    },
    {
      "bufferView": 11,
      "componentType": 5123,
      "count": 95016,
      "type": "SCALAR",
      "byteOffset": 0
    },
    {
      "bufferView": 12,
      "componentType": 5126,
      "count": 21578,
      "max": [
        0.9026304483413696,
        1.109008550643921,
        0.5544219017028809
      ],
      "min": [
        -0.8222398161888123,
        -1.1635890007019043,
        -0.41326454281806946
      ],
      "type": "VEC3",
      "byteOffset": 0
    },
    {
      "bufferView": 13,
      "componentType": 5126,
      "count": 21578,
      "type": "VEC3",
      "byteOffset": 0
    },
    {
      "bufferView": 14,
      "componentType": 5126,
      "count": 21578,
      "type": "VEC2",
      "byteOffset": 0
    },
    {
      "bufferView": 15,
      "componentType": 5123,
      "count": 109188,
      "type": "SCALAR",
      "byteOffset": 0
    },
    {
      "bufferView": 16,
      "componentType": 5126,
      "count": 6867,
      "max": [
        0.9069015383720398,
        1.0373274087905884,
        0.3937438130378723
      ],
      "min": [
        -0.7197019457817078,
        -1.1316009759902954,
        -0.4123525023460388
      ],
      "type": "VEC3",
      "byteOffset": 0
    },
    {
      "bufferView": 17,
      "componentType": 5126,
      "count": 6867,
      "type": "VEC3",
      "byteOffset": 0
    },
    {
      "bufferView": 18,
      "componentType": 5126,
      "count": 6867,
      "type": "VEC2",
      "byteOffset": 0
    },
    {
      "bufferView": 19,
      "componentType": 5123,
      "count": 31488,
      "type": "SCALAR",
      "byteOffset": 0
    },
    {
      "bufferView": 20,
      "componentType": 5126,
      "count": 7260,
      "max": [
        0.8111746907234192,
        1.0553845167160034,
        0.20737363398075104
      ],
      "min": [
        -0.8133977055549622,
        -1.0151816606521606,
        -0.25086739659309387
      ],
      "type": "VEC3",
      "byteOffset": 0
    },
    {
      "bufferView": 21,
      "componentType": 5126,
      "count": 7260,
      "type": "VEC3",
      "byteOffset": 0
    },
    {
      "bufferView": 22,
      "componentType": 5126,
      "count": 7260,
      "type": "VEC2",
      "byteOffset": 0
    },
    {
      "bufferView": 23,
      "componentType": 5123,
      "count": 30108,
      "type": "SCALAR",
      "byteOffset": 0
    },
    {
      "bufferView": 24,
      "componentType": 5126,
      "count": 8986,
      "max": [
        1.3605420589447021,
        1.5992437601089478,
        0.5754044055938721
      ],
      "min": [
        -1.0295158624649048,
        -1.3915226459503174,
        -0.4438703656196594
      ],
      "type": "VEC3",
      "byteOffset": 0
    },
    {
      "bufferView": 25,
      "componentType": 5126,
      "count": 8986,
      "type": "VEC3",
      "byteOffset": 0
    },
    {
      "bufferView": 26,
      "componentType": 5126,
      "count": 8986,
      "type": "VEC2",
      "byteOffset": 0
    },
    {
      "bufferView": 27,
      "componentType": 5123,
      "count": 41820,
      "type": "SCALAR",
      "byteOffset": 0
    },
    {
      "bufferView": 28,
      "componentType": 5126,
      "count": 22549,
      "max": [
        1.6719751358032227,
        1.655405879020691,
        0.6898757815361023
      ],
      "min": [
        -1.5616198778152466,
        -1.5656061172485352,
        -0.9098014235496521
      ],
      "type": "VEC3",
      "byteOffset": 0
    },
    {
      "bufferView": 29,
      "componentType": 5126,
      "count": 22549,
      "type": "VEC3",
      "byteOffset": 0
    },
    {
      "bufferView": 30,
      "componentType": 5126,
      "count": 22549,
      "type": "VEC2",
      "byteOffset": 0
    },
    {
      "bufferView": 31,
      "componentType": 5123,
      "count": 109500,
      "type": "SCALAR",
      "byteOffset": 0
    },
    {
      "bufferView": 32,
      "componentType": 5126,
      "count": 28682,
      "max": [
        1.1916682720184326,
        1.2558029890060425,
        0.560749351978302
      ],
      "min": [
        -0.9544505476951599,
        -1.0728150606155396,
        -0.5422889590263367
      ],
      "type": "VEC3",
      "byteOffset": 0
    },
    {
      "bufferView": 33,
      "componentType": 5126,
      "count": 28682,
      "type": "VEC3",
      "byteOffset": 0
    },
    {
      "bufferView": 34,
      "componentType": 5126,
      "count": 28682,
      "type": "VEC2",
      "byteOffset": 0
    },
    {
      "bufferView": 35,
      "componentType": 5123,
      "count": 145776,
      "type": "SCALAR",
      "byteOffset": 0
    },
    {
      "bufferView": 36,
      "componentType": 5126,
      "count": 7749,
      "max": [
        0.8040260672569275,
        1.0519382953643799,
        0.31839433312416077
      ],
      "min": [
        -0.80397629737854,
        -1.1243624687194824,
        -0.2817502021789551
      ],
      "type": "VEC3",
      "byteOffset": 0
    },
    {
      "bufferView": 37,
      "componentType": 5126,
      "count": 7749,
      "type": "VEC3",
      "byteOffset": 0
    },
    {
      "bufferView": 38,
      "componentType": 5126,
      "count": 7749,
      "type": "VEC2",
      "byteOffset": 0
    },
    {
      "bufferView": 39,
      "componentType": 5123,
      "count": 36588,
      "type": "SCALAR",
      "byteOffset": 0
    },
    {
      "bufferView": 40,
      "componentType": 5126,
      "count": 8342,
      "max": [
        1.2292386293411255,
        1.4046345949172974,
        0.3713487982749939
      ],
      "min": [
        -1.1940910816192627,
        -1.3179349899291992,
        -0.4975675046443939
      ],
      "type": "VEC3",
      "byteOffset": 0
    },
    {
      "bufferView": 41,
      "componentType": 5126,
      "count": 8342,
      "type": "VEC3",
      "byteOffset": 0
    },
    {
      "bufferView": 42,
      "componentType": 5126,
      "count": 8342,
      "type": "VEC2",
      "byteOffset": 0
    },
    {
      "bufferView": 43,
      "componentType": 5123,
      "count": 34668,
      "type": "SCALAR",
      "byteOffset": 0
    },
    {
      "bufferView": 44,
      "componentType": 5126,
      "count": 13657,
      "max": [
        0.9267894625663757,
        1.0592055320739746,
        0.3558790385723114
      ],
      "min": [
        -0.8382490277290344,
        -1.0754138231277466,
        -0.38451188802719116
      ],
      "type": "VEC3",
      "byteOffset": 0
    },
    {
      "bufferView": 45,
      "componentType": 5126,
      "count": 13657,
      "type": "VEC3",
      "byteOffset": 0
    },
    {
      "bufferView": 46,
      "componentType": 5126,
      "count": 13657,
      "type": "VEC2",
      "byteOffset": 0
    },
    {
      "bufferView": 47,
      "componentType": 5123,
      "count": 64740,
      "type": "SCALAR",
      "byteOffset": 0
    },
    {
      "bufferView": 48,
      "componentType": 5126,
      "count": 19331,
      "max": [
        0.7823653817176819,
        1.1247198581695557,
        0.2724955976009369
      ],
      "min": [
        -0.7006974220275879,
        -1.0398283004760742,
        -0.26652464270591736
      ],
      "type": "VEC3",
      "byteOffset": 0
    },
    {
      "bufferView": 49,
      "componentType": 5126,
      "count": 19331,
      "type": "VEC3",
      "byteOffset": 0
    },
    {
      "bufferView": 50,
      "componentType": 5126,
      "count": 19331,
      "type": "VEC2",
      "byteOffset": 0
    },
    {
      "bufferView": 51,
      "componentType": 5123,
      "count": 95016,
      "type": "SCALAR",
      "byteOffset": 0
    },
    {
      "bufferView": 52,
      "componentType": 5126,
      "count": 21578,
      "max": [
        0.9026303887367249,
        1.109008550643921,
        0.5544219017028809
      ],
      "min": [
        -0.8222397565841675,
        -1.1635890007019043,
        -0.41326451301574707
      ],
      "type": "VEC3",
      "byteOffset": 0
    },
    {
      "bufferView": 53,
      "componentType": 5126,
      "count": 21578,
      "type": "VEC3",
      "byteOffset": 0
    },
    {
      "bufferView": 54,
      "componentType": 5126,
      "count": 21578,
      "type": "VEC2",
      "byteOffset": 0
    },
    {
      "bufferView": 55,
      "componentType": 5123,
      "count": 109188,
      "type": "SCALAR",
      "byteOffset": 0
    },
    {
      "bufferView": 56,
      "componentType": 5126,
      "count": 6867,
      "max": [
        0.9069014191627502,
        1.0373274087905884,
        0.3937437832355499
      ],
      "min": [
        -0.719701886177063,
        -1.1316009759902954,
        -0.41235247254371643
      ],
      "type": "VEC3",
      "byteOffset": 0
    },
    {
      "bufferView": 57,
      "componentType": 5126,
      "count": 6867,
      "type": "VEC3",
      "byteOffset": 0
    },
    {
      "bufferView": 58,
      "componentType": 5126,
      "count": 6867,
      "type": "VEC2",
      "byteOffset": 0
    },
    {
      "bufferView": 59,
      "componentType": 5123,
      "count": 31488,
      "type": "SCALAR",
      "byteOffset": 0
    },
    {
      "bufferView": 60,
      "componentType": 5126,
      "count": 7260,
      "max": [
        0.8111748099327087,
        1.0553845167160034,
        0.20737366378307343
      ],
      "min": [
        -0.8133978843688965,
        -1.0151816606521606,
        -0.25086742639541626
      ],
      "type": "VEC3",
      "byteOffset": 0
    },
    {
      "bufferView": 61,
      "componentType": 5126,
      "count": 7260,
      "type": "VEC3",
      "byteOffset": 0
    },
    {
      "bufferView": 62,
      "componentType": 5126,
      "count": 7260,
      "type": "VEC2",
      "byteOffset": 0
    },
    {
      "bufferView": 63,
      "componentType": 5123,
      "count": 30108,
      "type": "SCALAR",
      "byteOffset": 0
    },
    {
      "bufferView": 64,
      "componentType": 5126,
      "count": 7749,
      "max": [
        0.7843004465103149,
        1.0113192796707153,
        0.29210638999938965
      ],
      "min": [
        -0.6964863538742065,
        -1.1243617534637451,
        -0.2518334984779358
      ],
      "type": "VEC3",
      "byteOffset": 0
    },
    {
      "bufferView": 65,
      "componentType": 5126,
      "count": 7749,
      "type": "VEC3",
      "byteOffset": 0
    },
    {
      "bufferView": 66,
      "componentType": 5126,
      "count": 7749,
      "type": "VEC2",
      "byteOffset": 0
    },
    {
      "bufferView": 67,
      "componentType": 5126,
      "count": 14832,
      "max": [
        18.778776168823242,
        8.167620658874512,
        30.147979736328125
      ],
      "min": [
        -17.652563095092773,
        7.591695785522461,
        -30.381732940673828
      ],
      "type": "VEC3",
      "byteOffset": 0
    },
    {
      "bufferView": 68,
      "componentType": 5126,
      "count": 14832,
      "type": "VEC3",
      "byteOffset": 0
    },
    {
      "bufferView": 69,
      "componentType": 5126,
      "count": 14832,
      "type": "VEC2",
      "byteOffset": 0
    },
    {
      "bufferView": 70,
      "componentType": 5123,
      "count": 29748,
      "type": "SCALAR",
      "byteOffset": 0
    },
    {
      "bufferView": 71,
      "componentType": 5126,
      "count": 168156,
      "max": [
        19.12042808532715,
        6.216582298278809,
        28.00018310546875
      ],
      "min": [
        -20.261381149291992,
        -11.370036125183105,
        -36.5368766784668
      ],
      "type": "VEC3",
      "byteOffset": 0
    },
    {
      "bufferView": 72,
      "componentType": 5126,
      "count": 168156,
      "type": "VEC3",
      "byteOffset": 0
    },
    {
      "bufferView": 73,
      "componentType": 5126,
      "count": 168156,
      "type": "VEC2",
      "byteOffset": 0
    },
    {
      "bufferView": 74,
      "componentType": 5125,
      "count": 929460,
      "type": "SCALAR",
      "byteOffset": 0
    },
    {
      "bufferView": 75,
      "componentType": 5126,
      "count": 33288,
      "max": [
        35.441673278808594,
        0.17659704387187958,
        34.511924743652344
      ],
      "min": [
        -34.0568962097168,
        -0.17566552758216858,
        -29.851863861083984
      ],
      "type": "VEC3",
      "byteOffset": 0
    },
    {
      "bufferView": 76,
      "componentType": 5126,
      "count": 33288,
      "type": "VEC3",
      "byteOffset": 0
    },
    {
      "bufferView": 77,
      "componentType": 5126,
      "count": 33288,
      "type": "VEC2",
      "byteOffset": 0
    },
    {
      "bufferView": 78,
      "componentType": 5123,
      "count": 67008,
      "type": "SCALAR",
      "byteOffset": 0
    },
    {
      "bufferView": 79,
      "componentType": 5126,
      "count": 735484,
      "max": [
        48.312313079833984,
        4.743693828582764,
        29.510746002197266
      ],
      "min": [
        -24.01256561279297,
        -11.66154670715332,
        -37.42242431640625
      ],
      "type": "VEC3",
      "byteOffset": 0
    },
    {
      "bufferView": 80,
      "componentType": 5126,
      "count": 735484,
      "type": "VEC3",
      "byteOffset": 0
    },
    {
      "bufferView": 81,
      "componentType": 5126,
      "count": 735484,
      "type": "VEC2",
      "byteOffset": 0
    },
    {
      "bufferView": 82,
      "componentType": 5125,
      "count": 4211124,
      "type": "SCALAR",
      "byteOffset": 0
    },
    {
      "bufferView": 83,
      "componentType": 5126,
      "count": 6034,
      "max": [
        15.3428316116333,
        0.15687324106693268,
        33.071224212646484
      ],
      "min": [
        -13.998876571655273,
        -0.15688633918762207,
        -27.61293601989746
      ],
      "type": "VEC3",
      "byteOffset": 0
    },
    {
      "bufferView": 84,
      "componentType": 5126,
      "count": 6034,
      "type": "VEC3",
      "byteOffset": 0
    },
    {
      "bufferView": 85,
      "componentType": 5126,
      "count": 6034,
      "type": "VEC2",
      "byteOffset": 0
    },
    {
      "bufferView": 86,
      "componentType": 5123,
      "count": 12444,
      "type": "SCALAR",
      "byteOffset": 0
    },
    {
      "bufferView": 87,
      "componentType": 5126,
      "count": 310524,
      "max": [
        24.719511032104492,
        4.825045108795166,
        30.678443908691406
      ],
      "min": [
        -11.33978271484375,
        -12.968419075012207,
        -32.44892120361328
      ],
      "type": "VEC3",
      "byteOffset": 0
    },
    {
      "bufferView": 88,
      "componentType": 5126,
      "count": 310524,
      "type": "VEC3",
      "byteOffset": 0
    },
    {
      "bufferView": 89,
      "componentType": 5126,
      "count": 310524,
      "type": "VEC2",
      "byteOffset": 0
    },
    {
      "bufferView": 90,
      "componentType": 5125,
      "count": 1789080,
      "type": "SCALAR",
      "byteOffset": 0
    },
    {
      "bufferView": 91,
      "componentType": 5126,
      "count": 11804,
      "max": [
        23.56742286682129,
        0.1352902352809906,
        31.610231399536133
      ],
      "min": [
        -31.58730125427246,
        -0.13511891663074493,
        -31.650102615356445
      ],
      "type": "VEC3",
      "byteOffset": 0
    },
    {
      "bufferView": 92,
      "componentType": 5126,
      "count": 11804,
      "type": "VEC3",
      "byteOffset": 0
    },
    {
      "bufferView": 93,
      "componentType": 5126,
      "count": 11804,
      "type": "VEC2",
      "byteOffset": 0
    },
    {
      "bufferView": 94,
      "componentType": 5123,
      "count": 23688,
      "type": "SCALAR",
      "byteOffset": 0
    },
    {
      "bufferView": 95,
      "componentType": 5126,
      "count": 378868,
      "max": [
        45.07290267944336,
        3.2555689811706543,
        35.99159622192383
      ],
      "min": [
        -14.352544784545898,
        -17.08530616760254,
        -30.74493408203125
      ],
      "type": "VEC3",
      "byteOffset": 0
    },
    {
      "bufferView": 96,
      "componentType": 5126,
      "count": 378868,
      "type": "VEC3",
      "byteOffset": 0
    },
    {
      "bufferView": 97,
      "componentType": 5126,
      "count": 378868,
      "type": "VEC2",
      "byteOffset": 0
    },
    {
      "bufferView": 98,
      "componentType": 5125,
      "count": 575172,
      "type": "SCALAR",
      "byteOffset": 0
    },
    {
      "bufferView": 99,
      "componentType": 5126,
      "count": 56663,
      "max": [
        5.665933609008789,
        0.9831804633140564,
        7.308858871459961
      ],
      "min": [
        -6.93973445892334,
        -5.409505844116211,
        -7.3834452629089355
      ],
      "type": "VEC3",
      "byteOffset": 0
    },
    {
      "bufferView": 100,
      "componentType": 5126,
      "count": 56663,
      "type": "VEC3",
      "byteOffset": 0
    },
    {
      "bufferView": 101,
      "componentType": 5126,
      "count": 56663,
      "type": "VEC2",
      "byteOffset": 0
    },
    {
      "bufferView": 102,
      "componentType": 5123,
      "count": 320472,
      "type": "SCALAR",
      "byteOffset": 0
    },
    {
      "bufferView": 103,
      "componentType": 5126,
      "count": 3982,
      "max": [
        5.073643207550049,
        0.026364168152213097,
        6.448480606079102
      ],
      "min": [
        -5.452369213104248,
        -0.026364101096987724,
        -6.5239410400390625
      ],
      "type": "VEC3",
      "byteOffset": 0
    },
    {
      "bufferView": 104,
      "componentType": 5126,
      "count": 3982,
      "type": "VEC3",
      "byteOffset": 0
    },
    {
      "bufferView": 105,
      "componentType": 5126,
      "count": 3982,
      "type": "VEC2",
      "byteOffset": 0
    },
    {
      "bufferView": 106,
      "componentType": 5123,
      "count": 8004,
      "type": "SCALAR",
      "byteOffset": 0
    },
    {
      "bufferView": 107,
      "componentType": 5126,
      "count": 2866,
      "max": [
        29.66773223876953,
        0.14257249236106873,
        40.798030853271484
      ],
      "min": [
        -30.393049240112305,
        -0.1426086723804474,
        -33.581974029541016
      ],
      "type": "VEC3",
      "byteOffset": 0
    },
    {
      "bufferView": 108,
      "componentType": 5126,
      "count": 2866,
      "type": "VEC3",
      "byteOffset": 0
    },
    {
      "bufferView": 109,
      "componentType": 5126,
      "count": 2866,
      "type": "VEC2",
      "byteOffset": 0
    },
    {
      "bufferView": 110,
      "componentType": 5123,
      "count": 5844,
      "type": "SCALAR",
      "byteOffset": 0
    },
    {
      "bufferView": 111,
      "componentType": 5126,
      "count": 190854,
      "max": [
        38.19451904296875,
        5.455525875091553,
        33.999107360839844
      ],
      "min": [
        -26.805585861206055,
        -9.262284278869629,
        -46.44645690917969
      ],
      "type": "VEC3",
      "byteOffset": 0
    },
    {
      "bufferView": 112,
      "componentType": 5126,
      "count": 190854,
      "type": "VEC3",
      "byteOffset": 0
    },
    {
      "bufferView": 113,
      "componentType": 5126,
      "count": 190854,
      "type": "VEC2",
      "byteOffset": 0
    },
    {
      "bufferView": 114,
      "componentType": 5125,
      "count": 1077300,
      "type": "SCALAR",
      "byteOffset": 0
    },
    {
      "bufferView": 115,
      "componentType": 5126,
      "count": 5350,
      "max": [
        15.67881965637207,
        0.15318827331066132,
        12.12031364440918
      ],
      "min": [
        -16.245784759521484,
        -0.15312416851520538,
        -14.138463973999023
      ],
      "type": "VEC3",
      "byteOffset": 0
    },
    {
      "bufferView": 116,
      "componentType": 5126,
      "count": 5350,
      "type": "VEC3",
      "byteOffset": 0
    },
    {
      "bufferView": 117,
      "componentType": 5126,
      "count": 5350,
      "type": "VEC2",
      "byteOffset": 0
    },
    {
      "bufferView": 118,
      "componentType": 5123,
      "count": 10800,
      "type": "SCALAR",
      "byteOffset": 0
    },
    {
      "bufferView": 119,
      "componentType": 5126,
      "count": 38221,
      "max": [
        16.71937370300293,
        3.8952367305755615,
        2.106112241744995
      ],
      "min": [
        -17.039772033691406,
        -7.903752326965332,
        -26.527814865112305
      ],
      "type": "VEC3",
      "byteOffset": 0
    },
    {
      "bufferView": 120,
      "componentType": 5126,
      "count": 38221,
      "type": "VEC3",
      "byteOffset": 0
    },
    {
      "bufferView": 121,
      "componentType": 5126,
      "count": 38221,
      "type": "VEC2",
      "byteOffset": 0
    },
    {
      "bufferView": 122,
      "componentType": 5123,
      "count": 197028,
      "type": "SCALAR",
      "byteOffset": 0
    }
  ],
  "bufferViews": [
    {
      "buffer": 0,
      "byteLength": 163884,
      "byteOffset": 0,
      "target": 34962,
      "byteStride": 12
    },
    {
      "buffer": 0,
      "byteLength": 163884,
      "byteOffset": 163888,
      "target": 34962,
      "byteStride": 12
    },
    {
      "buffer": 0,
      "byteLength": 109256,
      "byteOffset": 327776,
      "target": 34962,
      "byteStride": 8
    },
    {
      "buffer": 0,
      "byteLength": 129480,
      "byteOffset": 437032,
      "target": 34963
    },
    {
      "buffer": 0,
      "byteLength": 92004,
      "byteOffset": 566512,
      "target": 34962,
      "byteStride": 12
    },
    {
      "buffer": 0,
      "byteLength": 92004,
      "byteOffset": 658520,
      "target": 34962,
      "byteStride": 12
    },
    {
      "buffer": 0,
      "byteLength": 61336,
      "byteOffset": 750528,
      "target": 34962,
      "byteStride": 8
    },
    {
      "buffer": 0,
      "byteLength": 75888,
      "byteOffset": 811864,
      "target": 34963
    },
    {
      "buffer": 0,
      "byteLength": 231972,
      "byteOffset": 887752,
      "target": 34962,
      "byteStride": 12
    },
    {
      "buffer": 0,
      "byteLength": 231972,
      "byteOffset": 1119728,
      "target": 34962,
      "byteStride": 12
    },
    {
      "buffer": 0,
      "byteLength": 154648,
      "byteOffset": 1351704,
      "target": 34962,
      "byteStride": 8
    },
    {
      "buffer": 0,
      "byteLength": 190032,
      "byteOffset": 1506352,
      "target": 34963
    },
    {
      "buffer": 0,
      "byteLength": 258936,
      "byteOffset": 1696384,
      "target": 34962,
      "byteStride": 12
    },
    {
      "buffer": 0,
      "byteLength": 258936,
      "byteOffset": 1955320,
      "target": 34962,
      "byteStride": 12
    },
    {
      "buffer": 0,
      "byteLength": 172624,
      "byteOffset": 2214256,
      "target": 34962,
      "byteStride": 8
    },
    {
      "buffer": 0,
      "byteLength": 218376,
      "byteOffset": 2386880,
      "target": 34963
    },
    {
      "buffer": 0,
      "byteLength": 82404,
      "byteOffset": 2605256,
      "target": 34962,
      "byteStride": 12
    },
    {
      "buffer": 0,
      "byteLength": 82404,
      "byteOffset": 2687664,
      "target": 34962,
      "byteStride": 12
    },
    {
      "buffer": 0,
      "byteLength": 54936,
      "byteOffset": 2770072,
      "target": 34962,
      "byteStride": 8
    },
    {
      "buffer": 0,
      "byteLength": 62976,
      "byteOffset": 2825008,
      "target": 34963
    },
    {
      "buffer": 0,
      "byteLength": 87120,
      "byteOffset": 2887984,
      "target": 34962,
      "byteStride": 12
    },
    {
      "buffer": 0,
      "byteLength": 87120,
      "byteOffset": 2975104,
      "target": 34962,
      "byteStride": 12
    },
    {
      "buffer": 0,
      "byteLength": 58080,
      "byteOffset": 3062224,
      "target": 34962,
      "byteStride": 8
    },
    {
      "buffer": 0,
      "byteLength": 60216,
      "byteOffset": 3120304,
      "target": 34963
    },
    {
      "buffer": 0,
      "byteLength": 107832,
      "byteOffset": 3180520,
      "target": 34962,
      "byteStride": 12
    },
    {
      "buffer": 0,
      "byteLength": 107832,
      "byteOffset": 3288352,
      "target": 34962,
      "byteStride": 12
    },
    {
      "buffer": 0,
      "byteLength": 71888,
      "byteOffset": 3396184,
      "target": 34962,
      "byteStride": 8
    },
    {
      "buffer": 0,
      "byteLength": 83640,
      "byteOffset": 3468072,
      "target": 34963
    },
    {
      "buffer": 0,
      "byteLength": 270588,
      "byteOffset": 3551712,
      "target": 34962,
      "byteStride": 12
    },
    {
      "buffer": 0,
      "byteLength": 270588,
      "byteOffset": 3822304,
      "target": 34962,
      "byteStride": 12
    },
    {
      "buffer": 0,
      "byteLength": 180392,
      "byteOffset": 4092896,
      "target": 34962,
      "byteStride": 8
    },
    {
      "buffer": 0,
      "byteLength": 219000,
      "byteOffset": 4273288,
      "target": 34963
    },
    {
      "buffer": 0,
      "byteLength": 344184,
      "byteOffset": 4492288,
      "target": 34962,
      "byteStride": 12
    },
    {
      "buffer": 0,
      "byteLength": 344184,
      "byteOffset": 4836472,
      "target": 34962,
      "byteStride": 12
    },
    {
      "buffer": 0,
      "byteLength": 229456,
      "byteOffset": 5180656,
      "target": 34962,
      "byteStride": 8
    },
    {
      "buffer": 0,
      "byteLength": 291552,
      "byteOffset": 5410112,
      "target": 34963
    },
    {
      "buffer": 0,
      "byteLength": 92988,
      "byteOffset": 5701664,
      "target": 34962,
      "byteStride": 12
    },
    {
      "buffer": 0,
      "byteLength": 92988,
      "byteOffset": 5794656,
      "target": 34962,
      "byteStride": 12
    },
    {
      "buffer": 0,
      "byteLength": 61992,
      "byteOffset": 5887648,
      "target": 34962,
      "byteStride": 8
    },
    {
      "buffer": 0,
      "byteLength": 73176,
      "byteOffset": 5949640,
      "target": 34963
    },
    {
      "buffer": 0,
      "byteLength": 100104,
      "byteOffset": 6022816,
      "target": 34962,
      "byteStride": 12
    },
    {
      "buffer": 0,
      "byteLength": 100104,
      "byteOffset": 6122920,
      "target": 34962,
      "byteStride": 12
    },
    {
      "buffer": 0,
      "byteLength": 66736,
      "byteOffset": 6223024,
      "target": 34962,
      "byteStride": 8
    },
    {
      "buffer": 0,
      "byteLength": 69336,
      "byteOffset": 6289760,
      "target": 34963
    },
    {
      "buffer": 0,
      "byteLength": 163884,
      "byteOffset": 6359096,
      "target": 34962,
      "byteStride": 12
    },
    {
      "buffer": 0,
      "byteLength": 163884,
      "byteOffset": 6522984,
      "target": 34962,
      "byteStride": 12
    },
    {
      "buffer": 0,
      "byteLength": 109256,
      "byteOffset": 6686872,
      "target": 34962,
      "byteStride": 8
    },
    {
      "buffer": 0,
      "byteLength": 129480,
      "byteOffset": 6796128,
      "target": 34963
    },
    {
      "buffer": 0,
      "byteLength": 231972,
      "byteOffset": 6925608,
      "target": 34962,
      "byteStride": 12
    },
    {
      "buffer": 0,
      "byteLength": 231972,
      "byteOffset": 7157584,
      "target": 34962,
      "byteStride": 12
    },
    {
      "buffer": 0,
      "byteLength": 154648,
      "byteOffset": 7389560,
      "target": 34962,
      "byteStride": 8
    },
    {
      "buffer": 0,
      "byteLength": 190032,
      "byteOffset": 7544208,
      "target": 34963
    },
    {
      "buffer": 0,
      "byteLength": 258936,
      "byteOffset": 7734240,
      "target": 34962,
      "byteStride": 12
    },
    {
      "buffer": 0,
      "byteLength": 258936,
      "byteOffset": 7993176,
      "target": 34962,
      "byteStride": 12
    },
    {
      "buffer": 0,
      "byteLength": 172624,
      "byteOffset": 8252112,
      "target": 34962,
      "byteStride": 8
    },
    {
      "buffer": 0,
      "byteLength": 218376,
      "byteOffset": 8424736,
      "target": 34963
    },
    {
      "buffer": 0,
      "byteLength": 82404,
      "byteOffset": 8643112,
      "target": 34962,
      "byteStride": 12
    },
    {
      "buffer": 0,
      "byteLength": 82404,
      "byteOffset": 8725520,
      "target": 34962,
      "byteStride": 12
    },
    {
      "buffer": 0,
      "byteLength": 54936,
      "byteOffset": 8807928,
      "target": 34962,
      "byteStride": 8
    },
    {
      "buffer": 0,
      "byteLength": 62976,
      "byteOffset": 8862864,
      "target": 34963
    },
    {
      "buffer": 0,
      "byteLength": 87120,
      "byteOffset": 8925840,
      "target": 34962,
      "byteStride": 12
    },
    {
      "buffer": 0,
      "byteLength": 87120,
      "byteOffset": 9012960,
      "target": 34962,
      "byteStride": 12
    },
    {
      "buffer": 0,
      "byteLength": 58080,
      "byteOffset": 9100080,
      "target": 34962,
      "byteStride": 8
    },
    {
      "buffer": 0,
      "byteLength": 60216,
      "byteOffset": 9158160,
      "target": 34963
    },
    {
      "buffer": 0,
      "byteLength": 92988,
      "byteOffset": 9218376,
      "target": 34962,
      "byteStride": 12
    },
    {
      "buffer": 0,
      "byteLength": 92988,
      "byteOffset": 9311368,
      "target": 34962,
      "byteStride": 12
    },
    {
      "buffer": 0,
      "byteLength": 61992,
      "byteOffset": 9404360,
      "target": 34962,
      "byteStride": 8
    },
    {
      "buffer": 0,
      "byteLength": 177984,
      "byteOffset": 9466352,
      "target": 34962,
      "byteStride": 12
    },
    {
      "buffer": 0,
      "byteLength": 177984,
      "byteOffset": 9644336,
      "target": 34962,
      "byteStride": 12
    },
    {
      "buffer": 0,
      "byteLength": 118656,
      "byteOffset": 9822320,
      "target": 34962,
      "byteStride": 8
    },
    {
      "buffer": 0,
      "byteLength": 59496,
      "byteOffset": 9940976,
      "target": 34963
    },
    {
      "buffer": 0,
      "byteLength": 2017872,
      "byteOffset": 10000472,
      "target": 34962,
      "byteStride": 12
    },
    {
      "buffer": 0,
      "byteLength": 2017872,
      "byteOffset": 12018344,
      "target": 34962,
      "byteStride": 12
    },
    {
      "buffer": 0,
      "byteLength": 1345248,
      "byteOffset": 14036216,
      "target": 34962,
      "byteStride": 8
    },
    {
      "buffer": 0,
      "byteLength": 3717840,
      "byteOffset": 15381464,
      "target": 34963
    },
    {
      "buffer": 0,
      "byteLength": 399456,
      "byteOffset": 19099304,
      "target": 34962,
      "byteStride": 12
    },
    {
      "buffer": 0,
      "byteLength": 399456,
      "byteOffset": 19498760,
      "target": 34962,
      "byteStride": 12
    },
    {
      "buffer": 0,
      "byteLength": 266304,
      "byteOffset": 19898216,
      "target": 34962,
      "byteStride": 8
    },
    {
      "buffer": 0,
      "byteLength": 134016,
      "byteOffset": 20164520,
      "target": 34963
    },
    {
      "buffer": 0,
      "byteLength": 8825808,
      "byteOffset": 20298536,
      "target": 34962,
      "byteStride": 12
    },
    {
      "buffer": 0,
      "byteLength": 8825808,
      "byteOffset": 29124344,
      "target": 34962,
      "byteStride": 12
    },
    {
      "buffer": 0,
      "byteLength": 5883872,
      "byteOffset": 37950152,
      "target": 34962,
      "byteStride": 8
    },
    {
      "buffer": 0,
      "byteLength": 16844496,
      "byteOffset": 43834024,
      "target": 34963
    },
    {
      "buffer": 0,
      "byteLength": 72408,
      "byteOffset": 60678520,
      "target": 34962,
      "byteStride": 12
    },
    {
      "buffer": 0,
      "byteLength": 72408,
      "byteOffset": 60750928,
      "target": 34962,
      "byteStride": 12
    },
    {
      "buffer": 0,
      "byteLength": 48272,
      "byteOffset": 60823336,
      "target": 34962,
      "byteStride": 8
    },
    {
      "buffer": 0,
      "byteLength": 24888,
      "byteOffset": 60871608,
      "target": 34963
    },
    {
      "buffer": 0,
      "byteLength": 3726288,
      "byteOffset": 60896496,
      "target": 34962,
      "byteStride": 12
    },
    {
      "buffer": 0,
      "byteLength": 3726288,
      "byteOffset": 64622784,
      "target": 34962,
      "byteStride": 12
    },
    {
      "buffer": 0,
      "byteLength": 2484192,
      "byteOffset": 68349072,
      "target": 34962,
      "byteStride": 8
    },
    {
      "buffer": 0,
      "byteLength": 7156320,
      "byteOffset": 70833264,
      "target": 34963
    },
    {
      "buffer": 0,
      "byteLength": 141648,
      "byteOffset": 77989584,
      "target": 34962,
      "byteStride": 12
    },
    {
      "buffer": 0,
      "byteLength": 141648,
      "byteOffset": 78131232,
      "target": 34962,
      "byteStride": 12
    },
    {
      "buffer": 0,
      "byteLength": 94432,
      "byteOffset": 78272880,
      "target": 34962,
      "byteStride": 8
    },
    {
      "buffer": 0,
      "byteLength": 47376,
      "byteOffset": 78367312,
      "target": 34963
    },
    {
      "buffer": 0,
      "byteLength": 4546416,
      "byteOffset": 78414688,
      "target": 34962,
      "byteStride": 12
    },
    {
      "buffer": 0,
      "byteLength": 4546416,
      "byteOffset": 82961104,
      "target": 34962,
      "byteStride": 12
    },
    {
      "buffer": 0,
      "byteLength": 3030944,
      "byteOffset": 87507520,
      "target": 34962,
      "byteStride": 8
    },
    {
      "buffer": 0,
      "byteLength": 2300688,
      "byteOffset": 90538464,
      "target": 34963
    },
    {
      "buffer": 0,
      "byteLength": 679956,
      "byteOffset": 92839152,
      "target": 34962,
      "byteStride": 12
    },
    {
      "buffer": 0,
      "byteLength": 679956,
      "byteOffset": 93519112,
      "target": 34962,
      "byteStride": 12
    },
    {
      "buffer": 0,
      "byteLength": 453304,
      "byteOffset": 94199072,
      "target": 34962,
      "byteStride": 8
    },
    {
      "buffer": 0,
      "byteLength": 640944,
      "byteOffset": 94652376,
      "target": 34963
    },
    {
      "buffer": 0,
      "byteLength": 47784,
      "byteOffset": 95293320,
      "target": 34962,
      "byteStride": 12
    },
    {
      "buffer": 0,
      "byteLength": 47784,
      "byteOffset": 95341104,
      "target": 34962,
      "byteStride": 12
    },
    {
      "buffer": 0,
      "byteLength": 31856,
      "byteOffset": 95388888,
      "target": 34962,
      "byteStride": 8
    },
    {
      "buffer": 0,
      "byteLength": 16008,
      "byteOffset": 95420744,
      "target": 34963
    },
    {
      "buffer": 0,
      "byteLength": 34392,
      "byteOffset": 95436752,
      "target": 34962,
      "byteStride": 12
    },
    {
      "buffer": 0,
      "byteLength": 34392,
      "byteOffset": 95471144,
      "target": 34962,
      "byteStride": 12
    },
    {
      "buffer": 0,
      "byteLength": 22928,
      "byteOffset": 95505536,
      "target": 34962,
      "byteStride": 8
    },
    {
      "buffer": 0,
      "byteLength": 11688,
      "byteOffset": 95528464,
      "target": 34963
    },
    {
      "buffer": 0,
      "byteLength": 2290248,
      "byteOffset": 95540152,
      "target": 34962,
      "byteStride": 12
    },
    {
      "buffer": 0,
      "byteLength": 2290248,
      "byteOffset": 97830400,
      "target": 34962,
      "byteStride": 12
    },
    {
      "buffer": 0,
      "byteLength": 1526832,
      "byteOffset": 100120648,
      "target": 34962,
      "byteStride": 8
    },
    {
      "buffer": 0,
      "byteLength": 4309200,
      "byteOffset": 101647480,
      "target": 34963
    },
    {
      "buffer": 0,
      "byteLength": 64200,
      "byteOffset": 105956680,
      "target": 34962,
      "byteStride": 12
    },
    {
      "buffer": 0,
      "byteLength": 64200,
      "byteOffset": 106020880,
      "target": 34962,
      "byteStride": 12
    },
    {
      "buffer": 0,
      "byteLength": 42800,
      "byteOffset": 106085080,
      "target": 34962,
      "byteStride": 8
    },
    {
      "buffer": 0,
      "byteLength": 21600,
      "byteOffset": 106127880,
      "target": 34963
    },
    {
      "buffer": 0,
      "byteLength": 458652,
      "byteOffset": 106149480,
      "target": 34962,
      "byteStride": 12
    },
    {
      "buffer": 0,
      "byteLength": 458652,
      "byteOffset": 106608136,
      "target": 34962,
      "byteStride": 12
    },
    {
      "buffer": 0,
      "byteLength": 305768,
      "byteOffset": 107066792,
      "target": 34962,
      "byteStride": 8
    },
    {
      "buffer": 0,
      "byteLength": 394056,
      "byteOffset": 107372560,
      "target": 34963
    }
  ],
  "samplers": [
    {
      "magFilter": 9729,
      "minFilter": 9987,
      "wrapS": 10497,
      "wrapT": 10497
    }
  ],
  "buffers": [
    {
      "name": "beyond_products",
      "byteLength": 107766616,
      "uri": "beyond_products.bin"
    }
  ]
}
